<svg xmlns="http://www.w3.org/2000/svg" xmlns:xlink="http://www.w3.org/1999/xlink" width="1024" zoomAndPan="magnify" viewBox="0 0 768 767.999994" height="1024" preserveAspectRatio="xMidYMid meet" version="1.2"><defs><clipPath id="0fc05336d7"><path d="M 616.800781 0 L 151.199219 0 L 0 151.199219 L 0 616.800781 L 151.199219 768 L 616.800781 768 L 768 616.800781 L 768 151.199219 Z M 616.800781 0 "/></clipPath></defs><g id="74bd3e9600"><g clip-rule="nonzero" clip-path="url(#0fc05336d7)"><rect x="0" width="768" y="0" height="767.999994" style="fill:#ffde59;fill-opacity:1;stroke:none;"/><path style="fill:none;stroke-width:16;stroke-linecap:butt;stroke-linejoin:miter;stroke:#004aad;stroke-opacity:1;stroke-miterlimit:4;" d="M 822.401078 -0.0000266667 L 201.598964 -0.0000266667 L -0.000004 201.598942 L -0.000004 822.401056 L 201.598964 1024.000024 L 822.401078 1024.000024 L 1024.000047 822.401056 L 1024.000047 201.598942 Z M 822.401078 -0.0000266667 " transform="matrix(0.75,0,0,0.75,0.000003,0.00002)"/></g><path style="fill:none;stroke-width:65;stroke-linecap:butt;stroke-linejoin:miter;stroke:#004aad;stroke-opacity:1;stroke-miterlimit:4;" d="M -0.0001316 32.499999 L 819.546784 32.499999 " transform="matrix(0.75,0,0,0.75,62.656349,359.625002)"/><path style="fill:none;stroke-width:4;stroke-linecap:butt;stroke-linejoin:miter;stroke:#ffffff;stroke-opacity:1;stroke-miterlimit:4;" d="M 0.000942302 1.999999 L 644.553058 1.999999 " transform="matrix(0.75,0,0,0.75,128.870387,382.500001)"/></g></svg>